<?xml version="1.0" encoding="utf-8"?>
<svg xmlns="http://www.w3.org/2000/svg" viewBox="0 0 24 24" width="192" height="192">
  <path d="M17,2.414L17,2.414c-0.552,0.552-1.448,0.552-2,0l0,0c-0.552-0.552-1.448-0.552-2,0l0,0c-0.552,0.552-1.448,0.552-2,0l0,0c-0.552-0.552-1.448-0.552-2,0l0,0c-0.552,0.552-1.448,0.552-2,0l0,0c-0.552-0.552-1.448-0.552-2,0L4.414,3C4.149,3.265,4,3.625,4,4v15c0,1.657,1.343,3,3,3h10c1.657,0,3-1.343,3-3V4c0-0.375-0.149-0.735-0.414-1L19,2.414C18.448,1.862,17.552,1.862,17,2.414z" opacity=".35" fill="#32DBD4" />
  <path d="M16,9H8C7.447,9,7,8.552,7,8s0.447-1,1-1h8c0.553,0,1,0.448,1,1S16.553,9,16,9z" fill="#32DBD4" />
  <path d="M12,13H8c-0.553,0-1-0.448-1-1s0.447-1,1-1h4c0.553,0,1,0.448,1,1S12.553,13,12,13z" fill="#32DBD4" />
  <circle cx="16" cy="12" r="1" fill="#32DBD4" />
  <path d="M12,17H8c-0.553,0-1-0.448-1-1s0.447-1,1-1h4c0.553,0,1,0.448,1,1S12.553,17,12,17z" fill="#32DBD4" />
  <circle cx="16" cy="16" r="1" fill="#32DBD4" />
</svg>