<?xml version="1.0" encoding="utf-8"?>
<svg xmlns="http://www.w3.org/2000/svg" viewBox="0 0 24 24" width="96" height="96">
  <path d="M19.071,4.929c-3.905-3.905-10.237-3.905-14.142,0c-3.905,3.905-3.905,10.237,0,14.142c3.905,3.905,10.237,3.905,14.142,0 C22.976,15.166,22.976,8.834,19.071,4.929z M15,15L15,15c-0.552,0-1-0.448-1-1v-2.586l-3.879,3.879c-0.39,0.39-1.024,0.39-1.414,0 l0,0c-0.39-0.39-0.39-1.024,0-1.414L12.586,10L10,10c-0.552,0-1-0.448-1-1v0c0-0.552,0.448-1,1-1l5,0c0.552,0,1,0.448,1,1v5 C16,14.552,15.552,15,15,15z" fill="#5B6376" />
</svg>