<?xml version="1.0" encoding="utf-8"?>
<svg xmlns="http://www.w3.org/2000/svg" viewBox="0 0 24 24" width="192" height="192">
  <path d="M2,17V7c0-1.657,1.343-3,3-3h14c1.657,0,3,1.343,3,3v10c0,1.657-1.343,3-3,3H5C3.343,20,2,18.657,2,17z" opacity=".35" fill="#32DBD4" />
  <path d="M14,7c-0.186,0-7.814,0-8,0C5.448,7,5,7.448,5,8c0,0.552,0.448,1,1,1c0.186,0,7.814,0,8,0c0.552,0,1-0.448,1-1C15,7.448,14.552,7,14,7z" fill="#32DBD4" />
  <path d="M14,11c-0.186,0-7.814,0-8,0c-0.552,0-1,0.448-1,1c0,0.552,0.448,1,1,1c0.186,0,7.814,0,8,0c0.552,0,1-0.448,1-1C15,11.448,14.552,11,14,11z" fill="#32DBD4" />
  <path d="M18,15c-0.186,0-4.814,0-5,0c-0.552,0-1,0.448-1,1c0,0.552,0.448,1,1,1c0.186,0,4.814,0,5,0c0.552,0,1-0.448,1-1C19,15.448,18.552,15,18,15z" fill="#32DBD4" />
  <circle cx="18" cy="8" r="1" fill="#32DBD4" />
  <circle cx="18" cy="12" r="1" fill="#32DBD4" />
</svg>