<?xml version="1.0" encoding="utf-8"?>
<svg xmlns="http://www.w3.org/2000/svg" viewBox="0 0 24 24" width="192" height="192">
  <path d="M15.5,13h-7C6.567,13,5,14.567,5,16.5C5,18.433,6.567,20,8.5,20h7c1.933,0,3.5-1.567,3.5-3.5C19,14.567,17.433,13,15.5,13z" fill="#53CB34" />
  <path d="M20.5,15h-17C2.119,15,1,16.119,1,17.5C1,18.881,2.119,20,3.5,20h17c1.381,0,2.5-1.119,2.5-2.5C23,16.119,21.881,15,20.5,15z" fill="#53CB34" />
  <circle cx="12" cy="7" r="4" opacity=".35" fill="#53CB34" />
  <circle cx="20" cy="9" r="3" opacity=".35" fill="#53CB34" />
  <circle cx="4" cy="9" r="3" opacity=".35" fill="#53CB34" />
</svg>