<?xml version="1.0" encoding="utf-8"?>
<svg xmlns="http://www.w3.org/2000/svg" viewBox="0 0 24 24" width="192" height="192">
  <path d="M18,21H6c-1.657,0-3-1.343-3-3V6c0-1.657,1.343-3,3-3h12c1.657,0,3,1.343,3,3v12C21,19.657,19.657,21,18,21z" opacity=".35" fill="#F4BA00" />
  <path d="M17,8H7C6.448,8,6,8.448,6,9s0.448,1,1,1h10c0.552,0,1-0.448,1-1S17.552,8,17,8z" fill="#F4BA00" />
  <path d="M17,14H7c-0.552,0-1,0.448-1,1s0.448,1,1,1h10c0.552,0,1-0.448,1-1S17.552,14,17,14z" fill="#F4BA00" />
  <path d="M8,7v10c0,0.552,0.448,1,1,1s1-0.448,1-1V7c0-0.552-0.448-1-1-1S8,6.448,8,7z" fill="#F4BA00" />
  <path d="M14,7v10c0,0.552,0.448,1,1,1s1-0.448,1-1V7c0-0.552-0.448-1-1-1S14,6.448,14,7z" fill="#F4BA00" />
</svg>