<?xml version="1.0" encoding="utf-8"?>
<svg xmlns="http://www.w3.org/2000/svg" viewBox="0 0 24 24" width="192" height="192">
  <path d="M18,21H6c-1.657,0-3-1.343-3-3V6h18v12C21,19.657,19.657,21,18,21z" opacity=".35" fill="#FF4646" />
  <path d="M18,3H6C4.343,3,3,4.343,3,6v1h18V6C21,4.343,19.657,3,18,3z" fill="#FF4646" />
  <path d="M11,18c0,0.552-0.448,1-1,1s-1-0.448-1-1s0.448-1,1-1S11,17.448,11,18z M6,17c-0.552,0-1,0.448-1,1s0.448,1,1,1s1-0.448,1-1S6.552,17,6,17z M8,9c-1.657,0-3,1.343-3,3s1.343,3,3,3s3-1.343,3-3S9.657,9,8,9z M16,13c-1.657,0-3,1.343-3,3s1.343,3,3,3s3-1.343,3-3S17.657,13,16,13z M18,9c-0.552,0-1,0.448-1,1s0.448,1,1,1s1-0.448,1-1S18.552,9,18,9z M14,9c-0.552,0-1,0.448-1,1s0.448,1,1,1s1-0.448,1-1S14.552,9,14,9z" fill="#FF4646" />
</svg>