<?xml version="1.0" encoding="utf-8"?>
<svg xmlns="http://www.w3.org/2000/svg" viewBox="0 0 24 24" width="192" height="192">
  <path fill-rule="evenodd" d="M10.702,2.781L8.239,7.425c-0.028,0.054-0.069,0.1-0.118,0.136 c-0.049,0.036-0.106,0.06-0.166,0.07L2.777,8.539C2.241,8.633,1.801,9.015,1.633,9.532c-0.168,0.517-0.037,1.085,0.342,1.476 l3.656,3.778c0.042,0.044,0.074,0.097,0.093,0.154c0.019,0.058,0.024,0.119,0.016,0.18l-0.737,5.205 c-0.076,0.538,0.151,1.075,0.591,1.395c0.44,0.32,1.02,0.37,1.509,0.131l4.722-2.31c0.055-0.027,0.115-0.04,0.176-0.04V2 C11.456,2,10.957,2.301,10.702,2.781z" clip-rule="evenodd" fill="#F7CE3C" />
  <path fill-rule="evenodd" d="M18.369,14.785l3.656-3.778 c0.378-0.391,0.51-0.959,0.342-1.476c-0.168-0.517-0.608-0.899-1.144-0.993l-5.178-0.907c-0.06-0.011-0.117-0.035-0.166-0.07 c-0.049-0.036-0.09-0.082-0.118-0.136l-2.463-4.645C13.043,2.301,12.544,2,12,2v17.5c0.061,0,0.121,0.014,0.176,0.04l4.722,2.31 c0.489,0.239,1.069,0.188,1.509-0.131c0.44-0.32,0.667-0.856,0.591-1.395l-0.737-5.205c-0.009-0.06-0.003-0.122,0.016-0.18 C18.295,14.882,18.327,14.829,18.369,14.785z" clip-rule="evenodd" opacity=".35" fill="#F7CE3C" />
</svg>